<?xml version="1.0" encoding="UTF-8"?>
<svg version="1.1" xmlns="http://www.w3.org/2000/svg" width="393" height="342">
<path d="M0 0 C129.69 0 259.38 0 393 0 C393 112.86 393 225.72 393 342 C263.31 342 133.62 342 0 342 C0 229.14 0 116.28 0 0 Z " fill="#01A49E" transform="translate(0,0)"/>
<path d="M0 0 C129.69 0 259.38 0 393 0 C393 112.86 393 225.72 393 342 C263.31 342 133.62 342 0 342 C0 229.14 0 116.28 0 0 Z M142.5625 30.625 C141.68762939 30.88442383 140.81275879 31.14384766 139.91137695 31.41113281 C115.8386242 38.81947296 96.35738551 51.98507635 78 69 C77.40703125 69.52722656 76.8140625 70.05445313 76.203125 70.59765625 C54.23929346 91.04493752 42.38339552 121.20399613 37 150 C36.82041748 150.94794434 36.64083496 151.89588867 36.45581055 152.87255859 C35.59296855 158.79275459 35.7551778 164.77736819 35.75 170.75 C35.74932526 171.44529816 35.74865051 172.14059631 35.74795532 172.85696411 C35.76483886 183.80743825 36.29002504 194.34847973 39 205 C39.24145752 205.96437988 39.24145752 205.96437988 39.48779297 206.94824219 C45.73611254 230.92114167 57.18171092 252.8393799 74 271 C74.49870605 271.54253418 74.99741211 272.08506836 75.51123047 272.64404297 C98.45922843 297.32997703 133.13814746 316.64754161 167.35830688 318.14717102 C168.58149628 318.15701523 169.80468567 318.16685944 171.06494141 318.17700195 C171.74570236 318.18357315 172.42646332 318.19014435 173.12785339 318.19691467 C175.36909129 318.21652943 177.61026201 318.22829361 179.8515625 318.23828125 C180.62647411 318.24235678 181.40138573 318.2464323 182.19977951 318.25063133 C186.31417314 318.27145782 190.42853392 318.28576538 194.54296875 318.29516602 C197.90611233 318.30396351 201.26883431 318.3246922 204.63183594 318.35668945 C226.39342312 318.55909586 247.24343344 318.68216655 267.75 310.25 C268.6150415 309.90565918 269.48008301 309.56131836 270.37133789 309.20654297 C306.84807983 294.41676597 335.68686396 268.11206931 352 232 C352.46921875 230.99839844 352.9384375 229.99679688 353.421875 228.96484375 C356.02753927 223.11818349 357.94556116 217.147793 359.6875 211 C359.89012451 210.28859863 360.09274902 209.57719727 360.30151367 208.84423828 C363.28521899 197.84797094 364.32831091 187.12139076 364.26074219 175.76464844 C364.25004756 173.63447386 364.26068799 171.50514877 364.2734375 169.375 C364.31279659 133.99859278 351.22498816 99.85786753 327 74 C326.47035645 73.42797852 325.94071289 72.85595703 325.39501953 72.26660156 C306.24414009 51.76817119 282.42276144 37.47682532 255.3125 30.1875 C254.58957764 29.9925293 253.86665527 29.79755859 253.12182617 29.59667969 C241.41747187 26.64554288 229.70574606 25.69477235 217.66796875 25.734375 C216.35194168 25.73246155 215.03591461 25.7305481 213.68000793 25.72857666 C210.91609912 25.72565796 208.15232111 25.7298143 205.38842773 25.73925781 C201.89901068 25.75061837 198.40989959 25.7438971 194.92049313 25.73239326 C168.44581466 25.56824333 168.44581466 25.56824333 142.5625 30.625 Z " fill="#FEFEFE" transform="translate(0,0)"/>
<path d="M0 0 C3.07934179 2.87675351 5.271446 5.80735873 7.5 9.375 C18.60847474 26.22285336 33.59818712 42.24597255 54 47 C70.50038055 48.98066042 83.47075535 45.22402541 96.640625 34.9375 C97.41921875 34.298125 98.1978125 33.65875 99 33 C99.65484375 32.484375 100.3096875 31.96875 100.984375 31.4375 C109.84080149 24.22695808 116.20531036 14.79100211 122.83398438 5.60742188 C124.20153388 3.72217356 125.59361272 1.85643121 127 0 C128.65 0.66 130.3 1.32 132 2 C127.83646128 13.71399754 118.46602104 23.1958583 110 32 C109.41863281 32.65613281 108.83726562 33.31226563 108.23828125 33.98828125 C98.39234899 44.77664531 82.43228086 53.49679674 67.8125 54.2734375 C57.49911982 54.57904296 49.37474345 53.75968742 40 49 C39.19433594 48.61585938 38.38867188 48.23171875 37.55859375 47.8359375 C19.39686965 38.549769 5.71585763 21.57803189 -4 4 C-4 3.34 -4 2.68 -4 2 C-2.68 1.34 -1.36 0.68 0 0 Z " fill="#F3FAFA" transform="translate(136,177)"/>
</svg>
